<?xml version="1.0" standalone="no"?>
<!DOCTYPE svg PUBLIC "-//W3C//DTD SVG 20010904//EN"
 "http://www.w3.org/TR/2001/REC-SVG-20010904/DTD/svg10.dtd">
<svg version="1.0" xmlns="http://www.w3.org/2000/svg"
 width="576.000000pt" height="513.000000pt" viewBox="0 0 576.000000 513.000000"
 preserveAspectRatio="xMidYMid meet">

<g transform="translate(0.000000,513.000000) scale(0.100000,-0.100000)"
fill="#000000" stroke="none">
<path d="M0 2565 l0 -2565 2880 0 2880 0 0 2565 0 2565 -2880 0 -2880 0 0
-2565z m3169 2460 c449 -66 774 -195 1151 -460 86 -61 209 -170 200 -177 -3
-3 -45 -26 -94 -51 l-88 -47 -47 38 c-264 215 -610 383 -941 456 -455 100
-853 64 -1307 -120 -182 -74 -215 -91 -393 -209 -168 -111 -281 -205 -404
-336 -355 -378 -525 -720 -617 -1246 -23 -131 -38 -423 -22 -423 6 0 41 33 79
73 82 86 143 137 165 137 10 0 31 -16 48 -35 47 -53 43 -99 -10 -150 -68 -66
-301 -325 -354 -395 -27 -36 -52 -67 -55 -70 -17 -14 -117 -183 -146 -245 -69
-149 -96 -323 -66 -426 20 -68 78 -139 142 -174 50 -27 65 -30 168 -33 189 -7
321 22 545 117 115 49 407 202 407 213 0 4 -85 8 -190 8 l-190 0 0 1080 0
1080 180 0 c198 0 276 -11 418 -60 128 -43 231 -111 347 -225 167 -164 270
-352 311 -563 19 -100 19 -388 -1 -479 -75 -355 -281 -623 -592 -772 l-71 -34
5 -58 c6 -56 5 -59 -30 -94 -19 -19 -44 -35 -54 -35 -11 0 -41 -14 -67 -30
-111 -71 -344 -179 -520 -241 -186 -66 -289 -90 -422 -96 -145 -7 -238 10
-344 63 -159 80 -251 257 -236 454 17 217 84 386 254 644 l85 129 -7 206 c-15
447 86 894 286 1268 245 457 669 862 1133 1084 258 123 475 190 729 223 66 9
121 18 124 21 12 12 391 4 491 -10z m1796 -105 c78 -49 86 -177 15 -245 -39
-38 -118 -46 -170 -17 -42 23 -80 84 -80 130 0 46 35 109 73 132 43 27 119 26
162 0z m387 -721 c120 -26 223 -105 279 -216 31 -61 34 -75 37 -173 5 -136
-17 -227 -88 -371 -79 -159 -147 -255 -308 -439 -132 -150 -342 -348 -403
-380 -25 -14 -41 -2 -75 52 -34 53 -31 80 14 118 55 48 218 207 292 286 173
184 284 339 339 471 42 101 54 166 48 244 -20 236 -236 297 -612 172 -187 -63
-691 -314 -748 -373 -33 -35 -43 -40 -83 -40 -37 0 -51 6 -75 29 -34 35 -39
92 -11 129 29 37 507 288 703 368 164 67 332 116 439 127 79 8 202 6 252 -4z
m-2392 -676 c0 -496 2 -565 15 -553 8 8 61 80 119 160 57 80 164 225 237 323
l132 177 118 0 c66 0 119 -4 119 -8 0 -5 -27 -47 -60 -93 -33 -46 -74 -104
-92 -129 -41 -58 -276 -380 -387 -531 -47 -64 -93 -126 -101 -138 -8 -13 -48
-66 -87 -119 -40 -53 -73 -97 -73 -99 0 -7 550 -827 606 -904 158 -215 329
-315 573 -335 98 -8 249 15 361 55 46 16 86 28 88 27 3 -4 -29 -87 -64 -167
-24 -52 -29 -57 -77 -72 -94 -28 -163 -38 -284 -39 -99 -2 -135 3 -223 25
-186 49 -324 128 -441 254 -54 59 -246 333 -389 555 -41 64 -78 117 -82 117
-5 1 -8 -209 -8 -467 l0 -467 -96 -53 c-53 -29 -97 -52 -99 -50 -4 5 -9 1644
-7 2323 l2 670 93 52 c50 28 95 52 100 52 4 1 7 -254 7 -566z m978 547 c86
-53 71 -189 -24 -220 -79 -26 -152 21 -161 104 -6 53 11 86 60 116 41 25 83
25 125 0z m-2194 -31 c149 -38 312 -111 440 -196 150 -101 311 -293 390 -467
90 -197 98 -281 93 -893 -3 -418 -7 -509 -20 -568 -38 -161 -115 -332 -208
-465 -118 -169 -318 -329 -462 -368 l-38 -11 -35 72 c-19 39 -34 77 -34 84 0
7 28 27 62 44 215 109 412 350 481 589 43 150 50 255 44 750 -4 381 -7 466
-21 520 -71 278 -253 499 -517 627 -163 79 -314 113 -511 113 l-103 1 104 101
104 101 76 -7 c42 -4 111 -16 155 -27z m3297 -291 c36 -59 107 -211 135 -292
l28 -79 -30 -24 c-55 -46 -136 -105 -138 -101 -1 1 -20 53 -41 113 -21 61 -61
155 -89 210 -28 55 -51 104 -51 108 0 10 136 97 153 97 7 0 21 -15 33 -32z
m-628 -310 c36 -95 47 -147 47 -230 0 -109 -14 -176 -53 -255 -66 -135 -153
-218 -287 -273 -63 -27 -93 -33 -182 -37 -60 -3 -108 -10 -108 -14 0 -5 37 -9
83 -9 399 -1 675 -311 607 -681 -14 -77 -81 -205 -137 -265 -119 -125 -265
-184 -456 -184 -78 0 -82 1 -114 32 -30 29 -33 37 -33 95 l0 63 93 0 c166 0
281 42 362 132 72 80 90 127 90 238 0 89 -2 99 -34 158 -45 82 -93 130 -164
165 -72 35 -142 47 -274 47 l-103 0 0 204 0 204 113 4 c136 6 203 28 276 94
107 96 144 234 102 375 -12 39 -21 73 -19 74 15 15 155 105 164 105 6 0 19
-19 27 -42z m-703 -973 c0 -404 -3 -735 -7 -735 -9 1 -54 62 -145 199 l-58 86
1 385 c0 212 4 423 7 470 l7 85 64 85 c78 103 123 160 128 160 2 0 3 -331 3
-735z m1640 122 c0 -213 -60 -557 -136 -786 -51 -151 -165 -396 -239 -511
-151 -237 -380 -487 -590 -646 -128 -97 -342 -229 -465 -286 -254 -118 -473
-184 -749 -223 -132 -20 -504 -17 -606 5 -33 7 -105 21 -160 32 -382 75 -748
243 -1050 484 -90 72 -162 141 -154 147 21 19 160 107 167 107 5 0 16 -7 23
-17 28 -33 197 -161 294 -222 192 -121 456 -232 678 -286 146 -35 379 -65 514
-65 105 0 351 27 463 51 216 47 480 153 695 279 270 159 623 498 755 726 14
24 48 83 77 132 81 140 177 387 217 562 23 100 55 306 60 393 3 43 11 86 18
94 18 22 167 133 179 133 5 0 9 -46 9 -103z m-4631 -690 c19 -67 55 -171 81
-232 71 -165 73 -146 -21 -199 -44 -25 -85 -46 -89 -46 -19 0 -160 366 -160
414 0 22 37 72 109 149 19 20 38 37 41 37 3 0 20 -55 39 -123z m218 -1350 c32
-18 59 -57 73 -104 32 -105 -71 -211 -175 -182 -110 31 -156 160 -87 246 38
48 137 69 189 40z"/>
<path d="M1352 2553 l3 -878 105 4 c173 6 306 51 430 146 143 110 276 326 314
509 20 100 21 315 1 411 -55 258 -247 509 -468 610 -83 38 -239 75 -318 75
l-69 0 2 -877z"/>
</g>
</svg>
